<svg width="512" height="512" viewBox="0 0 512 512" fill="none" xmlns="http://www.w3.org/2000/svg">
  <rect width="512" height="512" rx="64" fill="#10b981"/>
  <path d="M256 128C186.4 128 128 186.4 128 256C128 325.6 186.4 384 256 384C325.6 384 384 325.6 384 256C384 186.4 325.6 128 256 128Z" fill="white"/>
  <path d="M256 160C204.6 160 160 204.6 160 256C160 307.4 204.6 352 256 352C307.4 352 352 307.4 352 256C352 204.6 307.4 160 256 160Z" fill="#10b981"/>
  <path d="M256 192C221.5 192 192 221.5 192 256C192 290.5 221.5 320 256 320C290.5 320 320 290.5 320 256C320 221.5 290.5 192 256 192Z" fill="white"/>
  <path d="M224 224L288 288M288 224L224 288" stroke="#10b981" stroke-width="8" stroke-linecap="round"/>
</svg>
